<svg width="353" height="353" viewBox="0 0 353 353" fill="none" xmlns="http://www.w3.org/2000/svg">
<path d="M323 172.5C323 253.41 257.41 319 176.5 319C95.5903 319 30 253.41 30 172.5C30 91.5903 95.5903 26 176.5 26C257.41 26 323 91.5903 323 172.5ZM88.6 172.5C88.6 221.046 127.954 260.4 176.5 260.4C225.046 260.4 264.4 221.046 264.4 172.5C264.4 123.954 225.046 84.6 176.5 84.6C127.954 84.6 88.6 123.954 88.6 172.5Z" fill="#242F31"/>
<g filter="url(#filter0_d)">
<path d="M323 172.5C323 205.407 311.921 237.355 291.549 263.197C271.177 289.039 242.697 307.27 210.7 314.952C178.702 322.634 145.05 319.32 115.166 305.543C85.2824 291.766 60.9069 268.33 45.9676 239.01C31.0282 209.69 26.3952 176.194 32.815 143.919C39.2347 111.645 56.3334 82.4717 81.3558 61.1005C106.378 39.7294 137.867 27.4049 170.748 26.1129C203.63 24.821 235.988 34.6369 262.611 53.979L228.166 101.387C212.193 89.7822 192.778 83.8926 173.049 84.6678C153.32 85.4429 134.427 92.8376 119.414 105.66C104.4 118.483 94.1408 135.987 90.289 155.352C86.4371 174.716 89.2169 194.814 98.1805 212.406C107.144 229.998 121.769 244.06 139.7 252.326C157.63 260.592 177.821 262.58 197.02 257.971C216.218 253.362 233.306 242.424 245.529 226.918C257.753 211.413 264.4 192.244 264.4 172.5H323Z" fill="url(#paint0_linear)"/>
</g>
<defs>
<filter id="filter0_d" x="-0.000183105" y="-6.10352e-05" width="353" height="353" filterUnits="userSpaceOnUse" color-interpolation-filters="sRGB">
<feFlood flood-opacity="0" result="BackgroundImageFix"/>
<feColorMatrix in="SourceAlpha" type="matrix" values="0 0 0 0 0 0 0 0 0 0 0 0 0 0 0 0 0 0 127 0"/>
<feOffset dy="4"/>
<feGaussianBlur stdDeviation="15"/>
<feColorMatrix type="matrix" values="0 0 0 0 0 0 0 0 0 0.623529 0 0 0 0 0.709804 0 0 0 0.2 0"/>
<feBlend mode="normal" in2="BackgroundImageFix" result="effect1_dropShadow"/>
<feBlend mode="normal" in="SourceGraphic" in2="effect1_dropShadow" result="shape"/>
</filter>
<linearGradient id="paint0_linear" x1="30" y1="26" x2="383.174" y2="187.006" gradientUnits="userSpaceOnUse">
<stop stop-color="#009FB5"/>
<stop offset="1" stop-color="#27CFC3"/>
</linearGradient>
</defs>
</svg>
