<svg width="75" height="76" viewBox="0 0 75 76" fill="none" xmlns="http://www.w3.org/2000/svg">
<path d="M1.02801 18.4141C0.588281 21.5137 1.69219 23.1122 1.02801 24.6088C0.363835 26.1055 -0.410272 28.7756 0.253903 30.591C0.918078 32.4109 1.91205 36.3607 2.79609 36.4669C3.68013 36.5732 2.13191 32.194 3.01595 33.5843C3.89999 34.9747 3.89999 37.0382 5.44821 38.464C6.99642 39.8898 9.0943 39.6728 10.7524 41.0632C12.4106 42.4536 14.0687 44.4816 15.617 44.269C15.617 44.269 15.507 45.3362 14.7329 47.1517C13.9588 48.9671 13.8489 51.1058 14.8428 52.3855C15.8368 53.6652 16.8308 55.5914 17.7148 56.5523C18.5989 57.5131 19.263 62.6407 19.0432 65.2045C18.8233 67.7683 20.0372 73.538 22.7992 74.8177C25.5613 76.1018 22.7992 74.1756 22.245 72.5727C21.6907 70.9698 22.671 67.2325 24.0039 66.6968C25.3368 66.161 26.5552 64.0267 27.5492 62.53C28.5432 61.0334 31.0854 60.3957 31.8595 58.5758C32.6336 56.7604 32.3038 54.6217 32.7435 53.6608C33.1832 52.6999 34.4017 50.5612 31.7495 49.2815C29.0974 47.9974 27.9935 48.6395 27.8836 47.466C27.7736 46.2926 27.1095 45.0085 25.2315 44.4772C23.3535 43.9414 21.6953 42.9052 19.5974 42.675C17.4995 42.4447 17.0552 44.0476 15.9513 43.193C14.8474 42.3384 13.9634 41.4838 13.5191 40.4167C13.0794 39.3496 11.751 39.9916 11.8609 39.3496C11.9709 38.7075 13.7389 36.892 11.751 37.5341C9.76306 38.1761 7.99498 37.9592 8.10491 36.25C8.21484 34.5408 10.6471 33.8987 11.6411 33.6862C12.635 33.4736 13.4091 34.647 14.623 35.3954C15.8368 36.1437 14.7329 34.3282 15.3971 33.0441C16.0613 31.76 18.6035 31.8707 18.9333 30.0552C19.263 28.2398 18.8233 26.7431 20.8113 26.5306C22.7992 26.318 24.9017 26.6368 25.1215 25.676C25.3414 24.7151 22.7992 25.9948 22.6893 24.8214C22.5793 23.648 24.8971 22.045 25.5613 23.2184C26.2254 24.3919 27.8836 24.4981 28.1034 24.073C28.3233 23.648 28.1034 22.8996 27.3293 21.0842C26.5552 19.2687 25.7811 19.8 25.1215 17.772C24.4574 15.744 23.3534 17.8783 22.2495 16.8112C21.1456 15.744 19.8173 13.499 19.5974 15.4208C19.3776 17.3425 19.3776 18.4097 18.3836 19.9063C17.3896 21.403 16.9453 20.2251 16.0613 19.2643C15.1772 18.3034 13.1893 17.3425 13.8535 16.4879C14.5176 15.6333 15.1818 13.3883 16.1758 14.0304C17.1698 14.6724 18.718 14.6724 18.4981 13.6009C18.2782 12.5337 18.4981 12.1042 18.9378 11.5729C19.3776 11.0371 20.9258 10.0762 20.9258 11.9979C20.9258 13.9197 20.7059 14.4555 22.2541 14.668C23.8023 14.8806 25.5704 14.9868 25.4605 14.026C25.3506 13.0651 25.9002 13.2776 25.4605 11.6747C25.0162 10.0718 23.6924 9.9655 22.2541 9.21717C20.8158 8.46884 20.0417 7.29543 18.8279 7.72051C17.6141 8.1456 17.4995 8.57511 17.3896 9.74853C17.2797 10.9219 16.6155 11.3515 16.1758 10.8157C15.7361 10.2799 16.2857 8.57069 14.6276 9.64226C12.9694 10.7094 12.3052 12.5249 11.4212 11.2452C10.5372 9.96107 12.7496 7.72051 10.4272 8.68139C8.10491 9.64226 6.44676 10.7094 7.66518 11.1389C8.87902 11.564 10.0974 12.3123 8.87902 12.7418C7.66518 13.1669 5.23292 12.423 4.34889 13.2776C3.46026 14.1411 1.02801 18.4141 1.02801 18.4141Z" fill="white"/>
<path d="M14.0688 6.87963C14.0643 8.07519 14.3986 9.01393 15.5071 7.94678C16.611 6.87963 17.2752 5.5955 18.0493 6.13129C18.8234 6.66708 20.1472 6.52539 20.7014 6.48553C21.2557 6.45011 21.3656 4.84717 22.9138 5.05971C24.4621 5.27226 23.9078 4.7409 25.566 3.88629C27.2241 3.03168 30.7603 1.53502 27.1142 1.96453C23.4681 2.39405 23.2482 1.42874 20.706 3.03168C18.1638 4.63462 17.6142 4.63462 16.95 5.05971C16.2858 5.48923 15.5117 3.78002 14.6277 5.05971C13.7436 6.33941 14.0734 5.66192 14.0688 6.87963Z" fill="white"/>
<path d="M27.3294 3.56897C26.024 4.65827 24.0131 6.2391 25.5614 6.2391C27.1096 6.2391 27.8608 5.45533 28.699 6.48707C29.5372 7.51881 29.2074 9.12177 29.2074 9.87011C29.2074 10.6185 28.7677 12.3277 29.8716 14.462C30.9755 16.6008 31.0855 17.9868 32.1939 16.6008C33.2979 15.2104 35.95 12.5402 37.2783 12.3277C38.6021 12.1151 39.9305 11.5794 40.5946 10.5122C41.2588 9.44502 40.5946 8.40885 41.6985 7.64279C42.8024 6.88117 42.5826 5.91585 42.9124 4.74241C43.2422 3.56897 46.2287 3.56897 44.9003 2.9269C43.572 2.28483 41.1443 1.85973 38.2677 2.17855C35.3957 2.5018 29.7617 1.53648 27.3294 3.56897Z" fill="white"/>
<path d="M15.1727 36.5736C14.4719 37.6806 14.8429 37.747 15.6124 37.964C16.3866 38.1765 15.2826 39.4606 16.1667 39.5669C17.0507 39.6732 19.0387 40.209 19.5929 39.5669C20.1472 38.9249 18.7089 39.1773 17.7149 38.4643C16.7209 37.7514 15.672 35.7898 15.1727 36.5736Z" fill="white"/>
<path d="M68.6594 53.9889C67.4684 54.5645 67.9952 55.4855 66.8913 56.1275C65.7874 56.7696 66.2271 56.9821 65.8974 58.4787C65.5676 59.9754 66.0073 60.83 66.7814 59.6521C67.5509 58.4743 69.9831 53.3468 68.6594 53.9889Z" fill="white"/>
<path d="M74.9576 36.0421C74.6278 34.2266 72.1956 17.7766 72.1956 17.7766C72.1956 17.7766 65.6775 13.7161 64.569 14.5707C63.4651 15.4253 61.5871 15.2969 61.8069 14.4512C62.0268 13.6099 63.4651 13.8224 61.0328 12.2195C58.6006 10.6165 58.1609 9.23059 56.2829 11.2586C54.4048 13.2866 53.9605 14.9958 52.8566 15.5316C51.7527 16.0674 50.8687 17.7766 52.0825 18.2017C53.2964 18.6268 53.4063 18.2017 54.4048 19.0563C55.3988 19.9109 56.7272 19.6984 56.947 19.1626C57.1669 18.6268 57.3868 16.9176 57.5013 16.2799C57.6112 15.6379 58.7334 13.5036 58.6143 15.2128C58.4952 16.922 60.1534 16.922 59.0449 18.0954C57.941 19.2688 58.6006 20.2297 56.3928 20.4467C54.1804 20.6592 54.0705 19.3795 52.8566 20.0172C51.6428 20.6592 51.7527 21.0843 51.3084 21.7264C50.8687 22.3684 48.5464 23.6481 48.5464 23.6481C48.5464 23.6481 46.6684 23.0061 47.5524 24.1839C48.4364 25.3573 49.2105 26.7477 48.4364 26.854C47.6623 26.9603 45.5645 25.7868 45.5645 27.0665C45.5645 28.3462 45.2347 29.7366 46.1187 30.0599C46.7416 30.2857 47.1493 30.7772 47.7219 30.7063C47.2776 30.8923 46.8745 31.158 46.563 31.5565C45.7019 32.6414 46.2332 34.5454 44.4651 35.1875C42.6971 35.8295 42.6971 36.5779 42.3673 37.9638C42.0375 39.3542 42.3673 42.8789 42.807 43.1977C43.2467 43.5165 44.0208 46.1866 45.8988 45.9741C47.7768 45.7615 49.7648 45.6774 50.429 45.9873C51.0931 46.2973 52.197 45.3364 52.5268 47.7895C52.8566 50.2471 53.6307 50.5659 54.075 51.85C54.5148 53.1297 53.8552 55.8042 54.075 57.4027C54.2949 59.0056 55.8431 61.782 55.8431 63.1724C55.8431 64.5628 57.5013 65.2004 58.3853 64.669C59.2693 64.1332 61.1474 63.0661 61.9215 61.3569C62.6956 59.6477 62.6956 58.7931 63.9094 56.5481C65.1232 54.3031 64.7934 52.7002 65.3477 50.9954C65.9019 49.2862 67.2303 48.1128 69.0533 46.1866C70.8764 44.2649 70.5466 43.1977 69.0533 43.304C67.5601 43.4102 66.5615 42.0199 65.792 40.3151C65.0179 38.6059 64.1339 34.3329 64.798 35.7233C65.4622 37.1136 66.786 40.9571 68.1143 41.5992C69.4381 42.2413 71.8703 40.5099 72.4246 39.8811C72.9788 39.2524 72.7544 37.4325 71.3207 36.6886C69.8824 35.9402 70.7664 35.2982 72.2047 36.1528C73.6293 37.0029 75.2874 37.8575 74.9576 36.0421ZM63.2452 31.4458C63.1353 32.3004 63.575 33.6908 61.1474 33.155C58.7151 32.6192 58.7151 31.3395 57.7211 32.3004C56.7272 33.2613 55.5087 34.1159 54.075 32.6192C52.6368 31.1226 52.8612 30.6975 52.0871 30.5912C51.5374 30.5159 49.7007 30.1174 48.1662 30.5514C48.2853 30.4849 48.4135 30.392 48.5509 30.2724C49.6548 29.3115 49.435 28.9883 50.6488 27.9211C51.8627 26.854 52.7467 25.8931 53.6307 26.854C54.5148 27.8149 56.3928 28.0274 55.7286 29.099C55.0644 30.1661 55.5087 30.8082 56.2829 30.1661C57.057 29.5241 58.1609 29.099 57.3868 28.2444C56.6126 27.3898 55.8385 25.1448 56.947 26.6414C58.0509 28.1381 58.3853 28.8864 59.0449 29.741C59.7091 30.5956 60.3732 31.1314 60.5931 30.5956C60.813 30.0599 60.4832 28.8864 60.813 28.6739C61.1428 28.4614 60.813 30.4894 61.8069 30.5956C62.8009 30.7019 63.3552 30.5912 63.2452 31.4458ZM65.7828 27.8149C65.0087 27.3898 63.575 27.8149 61.8069 28.3507C60.0389 28.8864 61.4543 27.1639 62.2467 25.9994C62.9567 24.9632 62.5765 26.3182 64.1247 26.4245C65.6729 26.5352 66.5569 28.2444 65.7828 27.8149ZM69.6534 31.127C69.3236 31.4458 68.7693 29.6303 68.4395 28.7757C68.1097 27.9211 68.1143 26.4378 69.0487 25.6097C70.2122 24.578 69.6534 26.9603 69.6534 28.24C69.6534 29.5241 69.9832 30.8082 69.6534 31.127Z" fill="white"/>
<path d="M48.3265 18.0954C47.6486 18.2902 47.1127 19.5921 47.4425 20.2298C47.7723 20.8719 47.1127 19.9109 46.2286 20.4423C45.3446 20.9782 44.03 22.4705 45.2392 22.5768C46.4485 22.683 46.2286 21.7221 47.3325 22.1516C48.4365 22.5768 49.6549 22.4705 49.6549 21.4033C49.6549 20.3361 49.4304 17.7721 48.3265 18.0954Z" fill="white"/>
<path d="M41.1443 13.1803C40.4801 13.2733 40.2603 14.8896 41.6985 15.1022C43.1368 15.3147 45.7065 14.7834 44.7537 13.9287C43.7964 13.074 42.6879 12.9678 41.1443 13.1803Z" fill="white"/>
<rect x="1.00183" y="1.61768" width="72.9981" height="73" rx="14" stroke="white" stroke-width="2"/>
</svg>
